<?xml version="1.0" standalone="no"?>
<!DOCTYPE svg PUBLIC "-//W3C//DTD SVG 20010904//EN"
 "http://www.w3.org/TR/2001/REC-SVG-20010904/DTD/svg10.dtd">
<svg version="1.0" xmlns="http://www.w3.org/2000/svg"
 width="1577.000000pt" height="449.000000pt" viewBox="0 0 1577.000000 449.000000"
 preserveAspectRatio="xMidYMid meet">
<metadata>
Created by potrace 1.16, written by Peter Selinger 2001-2019
</metadata>
<g transform="translate(0.000000,449.000000) scale(0.100000,-0.100000)"
fill="#000000" stroke="none">
<path d="M2830 2340 l0 -960 135 0 135 0 0 480 0 480 24 38 c32 51 100 110
155 135 35 16 66 21 131 21 131 0 193 -41 225 -147 12 -42 15 -133 15 -529 l0
-478 135 0 135 0 0 478 c0 282 -4 503 -11 541 -30 185 -109 291 -254 341 -172
60 -386 23 -515 -87 l-40 -35 0 341 0 341 -135 0 -135 0 0 -960z m250 584 l0
-357 53 51 c101 95 228 138 377 129 191 -12 305 -96 362 -267 22 -63 22 -81
26 -572 l3 -508 -115 0 -116 0 0 473 c0 515 -2 533 -56 604 -53 69 -177 99
-292 69 -92 -23 -171 -83 -221 -166 -20 -34 -21 -45 -21 -507 l0 -473 -115 0
-115 0 0 940 0 940 115 0 115 0 0 -356z"/>
<path d="M5650 2340 l0 -960 124 0 124 0 7 55 7 55 37 -29 c57 -45 133 -80
208 -96 302 -64 549 104 633 431 13 50 23 129 26 214 17 378 -112 640 -361
732 -49 18 -82 22 -175 23 -137 0 -203 -18 -297 -81 l-63 -42 0 329 0 329
-135 0 -135 0 0 -960z m250 593 l0 -347 33 31 c159 154 440 176 624 49 102
-70 182 -204 220 -368 26 -113 23 -386 -6 -493 -82 -308 -294 -466 -573 -427
-100 14 -185 53 -253 117 -27 25 -50 45 -52 45 -2 0 -3 -15 -3 -32 0 -18 -3
-50 -6 -71 l-7 -37 -103 0 -104 0 0 940 0 940 115 0 115 0 0 -347z"/>
<path d="M6135 2551 c-82 -21 -156 -75 -204 -148 l-31 -46 0 -294 0 -294 30
-44 c75 -109 170 -159 300 -159 217 1 340 179 340 494 0 244 -72 406 -208 470
-50 24 -173 35 -227 21z m218 -39 c136 -60 206 -236 194 -492 -6 -132 -20
-197 -56 -268 -57 -113 -144 -165 -272 -164 -118 0 -193 41 -270 146 l-29 39
0 287 0 286 28 45 c45 71 111 119 189 139 55 13 165 4 216 -18z"/>
<path d="M12088 2975 l-3 -324 -50 33 c-108 72 -259 102 -390 77 -195 -37
-350 -195 -417 -426 -20 -71 -23 -101 -23 -270 0 -214 11 -275 72 -401 69
-142 169 -237 302 -285 53 -19 86 -24 166 -24 125 0 219 27 296 85 59 44 67
41 68 -27 l1 -33 125 0 125 0 0 960 0 960 -135 0 -135 0 -2 -325z m252 -635
l0 -940 -104 0 -104 0 -7 65 -6 64 -57 -46 c-77 -63 -144 -92 -245 -105 -271
-36 -489 128 -574 432 -26 94 -26 416 0 510 88 314 340 482 625 415 76 -18
122 -41 190 -95 l52 -40 0 340 0 340 115 0 115 0 0 -940z"/>
<path d="M11717 2549 c-123 -29 -211 -130 -254 -292 -20 -74 -23 -305 -5 -379
33 -135 100 -236 184 -279 60 -30 148 -42 221 -29 97 18 155 55 215 138 l32
46 0 310 0 311 -36 48 c-78 107 -222 158 -357 126z m209 -34 c53 -22 100 -60
135 -108 l29 -40 0 -302 0 -302 -30 -45 c-55 -83 -145 -129 -254 -130 -95 -1
-148 17 -207 70 -91 82 -132 207 -132 402 0 216 51 351 166 432 68 48 207 59
293 23z"/>
<path d="M1920 2754 c-236 -51 -406 -245 -449 -514 -14 -84 -14 -276 0 -360
45 -278 219 -469 470 -517 209 -39 402 20 545 166 61 62 98 126 119 206 29
111 34 106 -112 103 l-127 -3 -8 -44 c-21 -121 -148 -211 -298 -211 -164 0
-265 88 -312 272 -18 71 -20 103 -16 242 4 137 9 170 29 223 34 94 83 152 159
191 62 33 69 34 155 30 59 -3 101 -10 122 -21 85 -45 147 -132 160 -222 l6
-45 128 0 129 0 0 28 c0 51 -30 155 -63 216 -43 83 -136 175 -217 214 -120 59
-280 77 -420 46z m281 -18 c206 -44 363 -211 393 -418 l7 -48 -109 0 -109 0
-7 41 c-15 94 -85 182 -177 224 -56 25 -70 27 -153 23 -77 -3 -99 -8 -144 -33
-66 -36 -107 -82 -142 -160 -40 -88 -53 -164 -53 -310 1 -266 75 -417 232
-476 82 -31 206 -24 285 16 87 44 130 100 162 213 4 15 199 17 209 3 9 -16
-16 -102 -48 -164 -58 -112 -177 -206 -317 -253 -75 -25 -251 -25 -335 0 -131
39 -224 106 -294 212 -95 141 -126 275 -118 499 6 161 21 227 77 342 113 231
369 346 641 289z"/>
<path d="M4640 2755 c-220 -50 -390 -223 -457 -465 -25 -92 -25 -367 1 -459
79 -287 278 -458 555 -478 258 -18 476 106 591 336 57 114 73 197 74 371 0
132 -3 167 -22 235 -68 237 -201 379 -422 451 -66 22 -241 27 -320 9z m275
-20 c153 -32 299 -137 375 -269 131 -231 131 -590 -2 -814 -71 -120 -197 -217
-333 -258 -82 -25 -258 -25 -340 0 -157 47 -284 153 -353 296 -64 131 -77 190
-77 370 0 180 13 239 76 369 119 242 379 364 654 306z"/>
<path d="M4669 2547 c-172 -64 -259 -229 -259 -489 0 -237 73 -394 216 -464
66 -32 177 -43 251 -25 112 28 210 132 254 270 29 91 37 279 16 378 -32 147
-112 264 -214 314 -60 28 -207 37 -264 16z m257 -34 c132 -69 213 -241 214
-451 0 -230 -90 -407 -238 -462 -83 -32 -196 -25 -270 15 -95 52 -158 142
-188 272 -20 84 -14 312 9 384 39 119 101 197 192 241 55 27 67 29 150 25 67
-2 101 -9 131 -24z"/>
<path d="M7489 2755 c-164 -33 -324 -159 -399 -316 -67 -141 -83 -225 -77
-408 6 -175 18 -234 75 -351 51 -104 160 -214 262 -264 103 -50 202 -69 315
-62 169 10 281 60 396 175 86 86 134 173 170 307 31 113 31 335 0 449 -93 350
-392 540 -742 470z m276 -20 c162 -34 312 -151 385 -299 61 -123 82 -217 82
-371 1 -223 -53 -382 -175 -512 -103 -110 -223 -166 -377 -178 -186 -14 -333
39 -461 165 -83 82 -132 168 -166 290 -25 91 -25 367 0 460 61 229 230 399
440 445 83 18 187 18 272 0z"/>
<path d="M7485 2532 c-152 -73 -228 -231 -229 -472 -1 -186 34 -295 125 -395
71 -77 128 -100 254 -100 89 0 105 3 150 27 95 50 161 140 201 273 25 83 25
293 0 384 -36 132 -102 224 -198 276 -46 25 -66 30 -148 33 -88 3 -99 1 -155
-26z m258 -8 c96 -32 181 -140 223 -279 22 -74 25 -273 5 -355 -34 -141 -126
-259 -227 -294 -110 -37 -242 -13 -323 60 -100 90 -144 210 -145 394 0 133 14
210 55 297 35 73 118 154 181 176 57 21 173 21 231 1z"/>
<path d="M8900 2755 c-164 -37 -304 -150 -378 -305 -63 -133 -76 -199 -76
-385 0 -133 3 -175 22 -249 70 -278 264 -443 542 -462 200 -14 391 72 505 228
47 62 85 164 85 224 l0 34 -125 0 -124 0 -7 -37 c-23 -126 -130 -212 -274
-221 -126 -7 -209 30 -276 124 -62 86 -79 164 -79 354 0 142 3 175 22 235 38
120 118 209 212 235 20 5 68 10 106 10 82 0 149 -27 204 -81 37 -37 81 -121
81 -156 0 -52 4 -53 138 -53 l125 0 -6 63 c-11 113 -63 221 -149 307 -51 50
-109 86 -197 118 -85 31 -253 39 -351 17z m340 -34 c155 -49 276 -177 324
-340 9 -30 16 -67 16 -83 l0 -29 -107 3 -107 3 -8 44 c-16 92 -97 188 -188
222 -75 28 -204 24 -271 -9 -138 -68 -208 -225 -209 -469 0 -252 67 -406 208
-474 70 -35 197 -38 277 -9 85 32 157 105 180 183 l16 57 106 0 106 0 -7 -47
c-17 -131 -133 -274 -278 -343 -159 -77 -360 -76 -517 1 -136 67 -245 211
-293 388 -30 111 -30 372 0 484 63 232 212 384 423 432 87 20 244 13 329 -14z"/>
<path d="M10222 2750 c-210 -55 -361 -209 -434 -440 -20 -66 -23 -95 -23 -245
0 -195 11 -251 75 -381 73 -148 199 -258 355 -307 102 -31 271 -31 375 1 194
61 333 205 399 413 81 259 35 569 -115 759 -139 177 -402 260 -632 200z m349
-29 c285 -90 454 -407 410 -771 -34 -282 -191 -487 -426 -556 -74 -22 -246
-25 -325 -5 -206 52 -364 217 -426 446 -26 97 -27 360 -1 455 66 239 242 410
462 450 78 14 231 4 306 -19z"/>
<path d="M10280 2551 c-128 -42 -212 -143 -256 -311 -23 -85 -23 -269 0 -364
35 -144 121 -254 234 -296 77 -29 205 -25 273 9 139 69 217 220 226 436 10
236 -74 427 -222 503 -41 21 -66 26 -140 29 -49 1 -101 -1 -115 -6z m214 -27
c27 -9 70 -37 101 -66 88 -80 131 -188 141 -358 15 -229 -73 -429 -216 -493
-62 -28 -172 -34 -242 -13 -106 30 -197 142 -234 287 -19 74 -22 254 -5 339
27 134 126 269 224 303 57 21 172 21 231 1z"/>
<path d="M13120 2763 c-224 -37 -412 -225 -481 -479 -30 -108 -32 -354 -5
-459 60 -232 227 -403 446 -456 71 -18 260 -18 330 0 81 20 148 52 215 104 55
42 140 136 140 156 0 8 -150 131 -159 131 -3 0 -28 -25 -57 -55 -75 -79 -157
-117 -263 -123 -142 -7 -236 35 -317 141 -37 50 -73 142 -83 215 l-6 42 451 0
452 0 -6 143 c-2 81 -12 172 -21 212 -55 225 -201 378 -404 421 -63 13 -176
16 -232 7z m273 -38 c80 -24 146 -66 203 -128 105 -113 151 -247 161 -464 l6
-133 -452 0 -451 0 0 -22 c1 -48 30 -158 55 -208 37 -73 107 -145 174 -177 51
-26 66 -28 171 -28 103 0 121 3 170 26 31 14 83 52 118 84 l62 57 54 -42 c82
-63 82 -61 39 -112 -121 -144 -253 -202 -458 -202 -192 0 -310 46 -430 168
-132 133 -177 261 -178 501 0 177 14 249 74 373 82 169 238 290 419 326 45 8
214 -3 263 -19z"/>
<path d="M13099 2542 c-99 -40 -164 -117 -205 -246 -41 -129 -75 -116 307
-116 l332 0 -6 63 c-12 130 -78 246 -164 288 -65 32 -197 37 -264 11z m250
-28 c81 -41 144 -146 158 -266 l6 -48 -311 0 -311 0 6 33 c10 55 42 132 75
181 55 84 138 125 254 126 56 0 80 -5 123 -26z"/>
</g>
</svg>
